<svg xmlns="http://www.w3.org/2000/svg" width="500" height="292" viewBox="0 0 500 292" fill="none" role="img" aria-label="MEDIKEY project card">
<title>MEDIKEY project card</title>
<defs>
<linearGradient id="bg" x1="0" y1="0" x2="0" y2="1"><stop offset="0" stop-color="#112a21"/><stop offset=".55" stop-color="#0d1f18"/><stop offset="1" stop-color="#0a1712"/></linearGradient>
<radialGradient id="bgGlow" cx=".5" cy=".25" r=".75"><stop offset="0" stop-color="#39FF88" stop-opacity=".20"/><stop offset="1" stop-color="#39FF88" stop-opacity="0"/></radialGradient>
<linearGradient id="glass" x1="0" y1="0" x2="1" y2="1"><stop offset="0" stop-color="#fff" stop-opacity=".13"/><stop offset="1" stop-color="#fff" stop-opacity=".03"/></linearGradient>
<linearGradient id="edge" x1="0" y1="0" x2="1" y2="1"><stop offset="0" stop-color="#7CFFD4" stop-opacity=".8"/><stop offset=".5" stop-color="#39FF88" stop-opacity=".2"/><stop offset="1" stop-color="#00FFC6" stop-opacity=".6"/></linearGradient>
<linearGradient id="greenText" x1="0" y1="0" x2="1" y2="0"><stop offset="0" stop-color="#FFFFFF"/><stop offset=".45" stop-color="#65FFB0"/><stop offset="1" stop-color="#39FF88"/></linearGradient>
<linearGradient id="greenFill" x1="0" y1="0" x2="1" y2="0"><stop offset="0" stop-color="#00FFC6"/><stop offset="1" stop-color="#39FF88"/></linearGradient>
<linearGradient id="tileFace" x1="0" y1="0" x2="1" y2="1"><stop offset="0" stop-color="#A8FFD6" stop-opacity=".30"/><stop offset=".5" stop-color="#39FF88" stop-opacity=".07"/><stop offset="1" stop-color="#00FFC6" stop-opacity=".18"/></linearGradient>
<filter id="glow" x="-40%" y="-40%" width="180%" height="180%"><feGaussianBlur stdDeviation="3" result="b"/><feMerge><feMergeNode in="b"/><feMergeNode in="SourceGraphic"/></feMerge></filter>
<filter id="glowS" x="-40%" y="-40%" width="180%" height="180%"><feGaussianBlur stdDeviation="1.6" result="b"/><feMerge><feMergeNode in="b"/><feMergeNode in="SourceGraphic"/></feMerge></filter>
<filter id="blur4" x="-50%" y="-50%" width="200%" height="200%"><feGaussianBlur stdDeviation="4"/></filter>
<filter id="blur10" x="-50%" y="-50%" width="200%" height="200%"><feGaussianBlur stdDeviation="10"/></filter>
<filter id="blur22" x="-60%" y="-60%" width="220%" height="220%"><feGaussianBlur stdDeviation="22"/></filter>
<filter id="shadow" x="-20%" y="-20%" width="140%" height="160%"><feDropShadow dx="0" dy="8" stdDeviation="9" flood-color="#000" flood-opacity=".45"/></filter>
<pattern id="grid" width="26" height="26" patternUnits="userSpaceOnUse"><path d="M26 0H0V26" stroke="#39FF88" stroke-opacity=".055" stroke-width="1"/></pattern>
</defs>
<rect width="500" height="292" rx="22" fill="url(#bg)"/><rect width="500" height="292" rx="22" fill="url(#bgGlow)"/><rect width="500" height="292" rx="22" fill="url(#grid)"/><rect x=".75" y=".75" width="498.5" height="290.5" rx="22" stroke="url(#edge)" stroke-width="1.5"/><circle cx="410" cy="100" r="90" fill="#39FF88" opacity=".13" filter="url(#blur22)"/><text x="26" y="46" font-family="'SF Pro Display','Inter','Segoe UI',-apple-system,'Helvetica Neue',Arial,sans-serif" font-size="24" font-weight="800" fill="#fff" text-anchor="start" letter-spacing="1.2" >MEDIKEY</text><text x="26" y="68" font-family="'SF Pro Display','Inter','Segoe UI',-apple-system,'Helvetica Neue',Arial,sans-serif" font-size="13.5" font-weight="700" fill="#39FF88" text-anchor="start" >Digital Medical Identity</text><text x="26" y="100" font-family="'SF Pro Display','Inter','Segoe UI',-apple-system,'Helvetica Neue',Arial,sans-serif" font-size="12.5" font-weight="400" fill="#B9D9CB" text-anchor="start" >A digital medical identity platform</text><text x="26" y="119" font-family="'SF Pro Display','Inter','Segoe UI',-apple-system,'Helvetica Neue',Arial,sans-serif" font-size="12.5" font-weight="400" fill="#B9D9CB" text-anchor="start" >designed around QR-based identification,</text><text x="26" y="138" font-family="'SF Pro Display','Inter','Segoe UI',-apple-system,'Helvetica Neue',Arial,sans-serif" font-size="12.5" font-weight="400" fill="#B9D9CB" text-anchor="start" >medical information management and</text><text x="26" y="157" font-family="'SF Pro Display','Inter','Segoe UI',-apple-system,'Helvetica Neue',Arial,sans-serif" font-size="12.5" font-weight="400" fill="#B9D9CB" text-anchor="start" >healthcare-oriented identity systems.</text><g transform="translate(420 92)"><g><animateTransform attributeName="transform" type="translate" values="0 0;0 -6;0 0" keyTimes="0;.5;1" calcMode="spline" keySplines=".45 0 .55 1;.45 0 .55 1" dur="6.2s" begin="-0.0s" repeatCount="indefinite"/><ellipse cx="0" cy="59.0" rx="34.4" ry="5.7" fill="#39FF88" opacity=".30" filter="url(#blur4)"/><g transform="rotate(8) skewY(-5)"><rect x="-41.0" y="-32.0" width="82" height="82" rx="21.3" fill="#03100a" stroke="#39FF88" stroke-opacity=".4"/><rect x="-41.0" y="-41.0" width="82" height="82" rx="21.3" fill="#0f2f24" fill-opacity=".94"/><rect x="-41.0" y="-41.0" width="82" height="82" rx="21.3" fill="url(#tileFace)" stroke="url(#edge)" stroke-width="1.4"/><path d="M-19.7 -39.4H19.7" stroke="#fff" stroke-opacity=".4" stroke-linecap="round"/><ellipse cx="-14.8" cy="-26.2" rx="23.0" ry="8.2" fill="#fff" opacity=".11" transform="rotate(-18 -14.8 -26.2)"/><g transform="scale(0.820)"><defs><linearGradient id="hg" x1="0" y1="0" x2="1" y2="1"><stop offset="0" stop-color="#C9FFE6"/><stop offset="1" stop-color="#39FF88"/></linearGradient></defs><path d="M0,22 C-34,0 -26,-24 -12,-24 C-4,-24 0,-17 0,-13 C0,-17 4,-24 12,-24 C26,-24 34,0 0,22Z" fill="url(#hg)" fill-opacity=".9"/><path d="M-22,-2 H-8 L-4,-10 L2,8 L6,-2 H22" stroke="#0A2B1F" stroke-width="2.6" stroke-linecap="round" stroke-linejoin="round"/></g></g></g></g><g transform="translate(372 138)"><g><animateTransform attributeName="transform" type="translate" values="0 0;0 -6;0 0" keyTimes="0;.5;1" calcMode="spline" keySplines=".45 0 .55 1;.45 0 .55 1" dur="5.4s" begin="-1.5s" repeatCount="indefinite"/><ellipse cx="0" cy="56.2" rx="32.8" ry="5.5" fill="#39FF88" opacity=".30" filter="url(#blur4)"/><g transform="rotate(-6) skewY(-5)"><rect x="-39.0" y="-30.4" width="78" height="78" rx="20.3" fill="#03100a" stroke="#39FF88" stroke-opacity=".4"/><rect x="-39.0" y="-39.0" width="78" height="78" rx="20.3" fill="#0f2f24" fill-opacity=".94"/><rect x="-39.0" y="-39.0" width="78" height="78" rx="20.3" fill="url(#tileFace)" stroke="url(#edge)" stroke-width="1.4"/><path d="M-18.7 -37.4H18.7" stroke="#fff" stroke-opacity=".4" stroke-linecap="round"/><ellipse cx="-14.0" cy="-25.0" rx="21.8" ry="7.8" fill="#fff" opacity=".11" transform="rotate(-18 -14.0 -25.0)"/><g transform="scale(0.780)"><g transform="translate(-40,-40)"><rect x="0.0" y="0.0" width="21.8" height="21.8" rx="3.6" stroke="#7CFFD4" stroke-width="4.0"/><rect x="7.6" y="7.6" width="6.5" height="6.5" fill="#7CFFD4"/><rect x="58.2" y="0.0" width="21.8" height="21.8" rx="3.6" stroke="#7CFFD4" stroke-width="4.0"/><rect x="65.8" y="7.6" width="6.5" height="6.5" fill="#7CFFD4"/><rect x="0.0" y="58.2" width="21.8" height="21.8" rx="3.6" stroke="#7CFFD4" stroke-width="4.0"/><rect x="7.6" y="65.8" width="6.5" height="6.5" fill="#7CFFD4"/><rect x="0.6" y="29.7" width="6.1" height="6.1" rx="1.3" fill="#7CFFD4"/><rect x="0.6" y="36.9" width="6.1" height="6.1" rx="1.3" fill="#7CFFD4"/><rect x="0.6" y="44.2" width="6.1" height="6.1" rx="1.3" fill="#7CFFD4"/><rect x="7.9" y="29.7" width="6.1" height="6.1" rx="1.3" fill="#7CFFD4"/><rect x="7.9" y="36.9" width="6.1" height="6.1" rx="1.3" fill="#7CFFD4"/><rect x="7.9" y="44.2" width="6.1" height="6.1" rx="1.3" fill="#7CFFD4"/><rect x="15.1" y="44.2" width="6.1" height="6.1" rx="1.3" fill="#7CFFD4"/><rect x="22.4" y="29.7" width="6.1" height="6.1" rx="1.3" fill="#7CFFD4"/><rect x="22.4" y="36.9" width="6.1" height="6.1" rx="1.3" fill="#7CFFD4"/><rect x="29.7" y="15.1" width="6.1" height="6.1" rx="1.3" fill="#7CFFD4"/><rect x="29.7" y="22.4" width="6.1" height="6.1" rx="1.3" fill="#7CFFD4"/><rect x="29.7" y="51.5" width="6.1" height="6.1" rx="1.3" fill="#7CFFD4"/><rect x="29.7" y="58.8" width="6.1" height="6.1" rx="1.3" fill="#7CFFD4"/><rect x="29.7" y="73.3" width="6.1" height="6.1" rx="1.3" fill="#7CFFD4"/><rect x="36.9" y="7.9" width="6.1" height="6.1" rx="1.3" fill="#7CFFD4"/><rect x="36.9" y="29.7" width="6.1" height="6.1" rx="1.3" fill="#7CFFD4"/><rect x="36.9" y="51.5" width="6.1" height="6.1" rx="1.3" fill="#7CFFD4"/><rect x="36.9" y="58.8" width="6.1" height="6.1" rx="1.3" fill="#7CFFD4"/><rect x="36.9" y="73.3" width="6.1" height="6.1" rx="1.3" fill="#7CFFD4"/><rect x="44.2" y="0.6" width="6.1" height="6.1" rx="1.3" fill="#7CFFD4"/><rect x="44.2" y="7.9" width="6.1" height="6.1" rx="1.3" fill="#7CFFD4"/><rect x="44.2" y="22.4" width="6.1" height="6.1" rx="1.3" fill="#7CFFD4"/><rect x="44.2" y="29.7" width="6.1" height="6.1" rx="1.3" fill="#7CFFD4"/><rect x="44.2" y="36.9" width="6.1" height="6.1" rx="1.3" fill="#7CFFD4"/><rect x="44.2" y="44.2" width="6.1" height="6.1" rx="1.3" fill="#7CFFD4"/><rect x="51.5" y="44.2" width="6.1" height="6.1" rx="1.3" fill="#7CFFD4"/><rect x="51.5" y="58.8" width="6.1" height="6.1" rx="1.3" fill="#7CFFD4"/><rect x="58.8" y="29.7" width="6.1" height="6.1" rx="1.3" fill="#7CFFD4"/><rect x="58.8" y="58.8" width="6.1" height="6.1" rx="1.3" fill="#7CFFD4"/><rect x="58.8" y="73.3" width="6.1" height="6.1" rx="1.3" fill="#7CFFD4"/><rect x="66.0" y="36.9" width="6.1" height="6.1" rx="1.3" fill="#7CFFD4"/><rect x="66.0" y="44.2" width="6.1" height="6.1" rx="1.3" fill="#7CFFD4"/><rect x="66.0" y="58.8" width="6.1" height="6.1" rx="1.3" fill="#7CFFD4"/><rect x="66.0" y="73.3" width="6.1" height="6.1" rx="1.3" fill="#7CFFD4"/><rect x="73.3" y="51.5" width="6.1" height="6.1" rx="1.3" fill="#7CFFD4"/><rect x="73.3" y="66.0" width="6.1" height="6.1" rx="1.3" fill="#7CFFD4"/><rect x="73.3" y="73.3" width="6.1" height="6.1" rx="1.3" fill="#7CFFD4"/></g></g></g></g></g><rect x="26" y="196" width="71" height="24" rx="12" fill="#fff" fill-opacity=".07" stroke="#39FF88" stroke-opacity=".35"/><text x="61.5" y="212" font-family="'JetBrains Mono','SF Mono',Menlo,Consolas,'DejaVu Sans Mono',monospace" font-size="11" font-weight="600" fill="#E5FFF1" text-anchor="middle" >Next.js</text><rect x="104" y="196" width="78" height="24" rx="12" fill="#fff" fill-opacity=".07" stroke="#39FF88" stroke-opacity=".35"/><text x="143.0" y="212" font-family="'JetBrains Mono','SF Mono',Menlo,Consolas,'DejaVu Sans Mono',monospace" font-size="11" font-weight="600" fill="#E5FFF1" text-anchor="middle" >Supabase</text><rect x="189" y="196" width="36" height="24" rx="12" fill="#fff" fill-opacity=".07" stroke="#39FF88" stroke-opacity=".35"/><text x="207.0" y="212" font-family="'JetBrains Mono','SF Mono',Menlo,Consolas,'DejaVu Sans Mono',monospace" font-size="11" font-weight="600" fill="#E5FFF1" text-anchor="middle" >QR</text><rect x="232" y="196" width="57" height="24" rx="12" fill="#fff" fill-opacity=".07" stroke="#39FF88" stroke-opacity=".35"/><text x="260.5" y="212" font-family="'JetBrains Mono','SF Mono',Menlo,Consolas,'DejaVu Sans Mono',monospace" font-size="11" font-weight="600" fill="#E5FFF1" text-anchor="middle" >React</text><rect x="296" y="196" width="78" height="24" rx="12" fill="#fff" fill-opacity=".07" stroke="#39FF88" stroke-opacity=".35"/><text x="335.0" y="212" font-family="'JetBrains Mono','SF Mono',Menlo,Consolas,'DejaVu Sans Mono',monospace" font-size="11" font-weight="600" fill="#E5FFF1" text-anchor="middle" >Tailwind</text><text x="26" y="260" font-family="'JetBrains Mono','SF Mono',Menlo,Consolas,'DejaVu Sans Mono',monospace" font-size="10.5" font-weight="600" fill="#86AC9B" text-anchor="start" letter-spacing="1.4" >IDENTITY // HEALTH // QR</text><rect x="368" y="242" width="106" height="26" rx="13" fill="#39FF88" fill-opacity=".10" stroke="#39FF88" stroke-opacity=".5"/><circle cx="384" cy="255" r="3.4" fill="#39FF88"><animate attributeName="opacity" values="1;.3;1" dur="1.7s" repeatCount="indefinite"/></circle><text x="395" y="259" font-family="'JetBrains Mono','SF Mono',Menlo,Consolas,'DejaVu Sans Mono',monospace" font-size="10.5" font-weight="600" fill="#65FFB0" text-anchor="start" letter-spacing="1.2" >ACTIVE</text>
</svg>
